# xmcd
#
# Track frame offsets: 
#        150
#        5857
#        12801
#        19101
#        23919
#        30474
#        38596
#        49435
#        62575
#        70029
#        78519
#        84898
#
# Disc length: 1272 seconds
#
# Revision: 0
# Processed by: cddbd v1.5.2PL0 Copyright (c) Steve Scherf et al.
# Submitted via: ExactAudioCopyFreeDBPlugin 1.0
#
DISCID=8704f60c
DTITLE=Bauer Willi - Zwiefache 5
DYEAR=1900
DGENRE=
TTITLE0=Ei Voda wann gibst ma dei Hi HO Häusl
TTITLE1=S´Geld des regiert die Welt
TTITLE2=Moiderl steh auf, legs Kitterl a
TTITLE3=DA, da host dar an Groschn
TTITLE4=z´öberst auf da Stadlspitz drobm
TTITLE5=Oan Wiegl Werg, zwoa Wiegl Werg
TTITLE6=Spinnradl aus Süssenbach
TTITLE7=Patscher aus Welden
TTITLE8=Druck na zua
TTITLE9=Juchhe frisch auf
TTITLE10=Bacht mei Mutter Köichla
TTITLE11=Landler aus Ratzing
EXTD=
EXTT0=
EXTT1=
EXTT2=
EXTT3=
EXTT4=
EXTT5=
EXTT6=
EXTT7=
EXTT8=
EXTT9=
EXTT10=
EXTT11=
PLAYORDER=
